<?xml version="1.0" standalone="no"?>
<!DOCTYPE svg PUBLIC "-//W3C//DTD SVG 20010904//EN"
 "http://www.w3.org/TR/2001/REC-SVG-20010904/DTD/svg10.dtd">
<svg version="1.0" xmlns="http://www.w3.org/2000/svg"
 width="260.000000pt" height="260.000000pt" viewBox="0 0 260.000000 260.000000"
 preserveAspectRatio="xMidYMid meet">
<metadata>
Created by potrace 1.11, written by Peter Selinger 2001-2013
</metadata>
<g transform="translate(0.000000,260.000000) scale(0.100000,-0.100000)"
fill="#000000" stroke="none">
<path d="M1165 2479 c-263 -31 -510 -152 -701 -343 -407 -407 -466 -1030 -144
-1512 68 -101 213 -246 314 -314 411 -275 931 -275 1342 0 101 68 246 213 314
314 275 412 275 930 0 1342 -68 101 -213 246 -314 314 -242 162 -529 233 -811
199z m154 -43 c25 -30 -16 -67 -44 -40 -18 19 -19 26 -3 42 16 16 33 15 47 -2z
m105 -8 c7 -12 6 -21 -3 -32 -18 -22 -38 -20 -51 3 -7 15 -6 24 6 36 19 18 33
16 48 -7z m-209 -18 c0 -33 -40 -41 -50 -11 -9 28 2 43 28 39 16 -2 22 -10 22
-28z m-97 -9 c4 -29 -15 -43 -40 -30 -18 10 -24 39 -11 53 15 15 48 1 51 -23z
m417 -1 c0 -18 -6 -26 -23 -28 -24 -4 -38 18 -28 44 3 9 15 14 28 12 17 -2 23
-10 23 -28z m-525 -5 c17 -20 8 -50 -14 -50 -27 0 -43 29 -27 49 17 20 25 20
41 1z m614 9 c20 -8 21 -38 2 -53 -19 -16 -46 -3 -46 23 0 34 12 42 44 30z
m110 -47 c15 -24 -17 -56 -41 -41 -24 15 -26 29 -7 48 19 19 33 17 48 -7z
m-810 -2 c8 -22 -4 -45 -24 -45 -23 0 -42 24 -34 44 8 20 50 21 58 1z m588
-31 c205 -42 383 -138 534 -288 95 -96 151 -176 210 -300 157 -332 124 -726
-87 -1037 -55 -82 -186 -213 -268 -268 -362 -246 -830 -246 -1192 0 -82 55
-213 186 -268 268 -246 362 -246 830 0 1192 55 82 186 213 268 268 236 160
530 221 803 165z m312 -7 c13 -21 -15 -53 -38 -44 -19 8 -21 38 -4 55 15 15
28 11 42 -11z m-999 -17 c0 -18 -6 -26 -23 -28 -13 -2 -25 3 -28 12 -10 26 4
48 28 44 17 -2 23 -10 23 -28z m1089 -33 c13 -21 -15 -53 -38 -44 -19 8 -21
38 -4 55 15 15 28 11 42 -11z m-1176 -4 c13 -26 4 -43 -23 -43 -24 0 -42 30
-30 50 10 16 44 12 53 -7z m1262 -52 c7 -15 6 -23 -6 -35 -12 -12 -20 -13 -35
-6 -22 12 -25 30 -7 48 18 18 36 15 48 -7z m-1345 -21 c0 -18 -6 -26 -23 -28
-13 -2 -25 3 -28 12 -10 26 4 48 28 44 17 -2 23 -10 23 -28z m1423 -59 c-4
-31 -35 -36 -52 -8 -9 14 -7 21 7 32 27 19 49 8 45 -24z m-1514 23 c21 -8 21
-50 0 -58 -9 -4 -23 -1 -30 5 -17 14 -18 46 -1 52 6 3 13 6 14 6 1 1 8 -2 17
-5z m-60 -87 c8 -12 7 -21 -5 -32 -21 -21 -49 -9 -49 20 0 36 34 44 54 12z
m1650 7 c7 -19 -10 -44 -29 -44 -7 0 -18 7 -25 15 -10 12 -10 18 0 30 16 20
46 19 54 -1z m66 -89 c0 -27 -26 -40 -46 -24 -19 16 -18 36 3 47 24 14 43 4
43 -23z m-1796 19 c19 -7 21 -50 4 -57 -18 -6 -48 11 -48 26 0 7 5 18 12 25
14 14 12 14 32 6z m1851 -104 c0 -18 -6 -26 -23 -28 -24 -4 -38 18 -28 44 3 9
15 14 28 12 17 -2 23 -10 23 -28z m-1891 4 c7 -19 -10 -44 -29 -44 -19 0 -38
28 -31 45 7 20 52 19 60 -1z m1941 -94 c0 -18 -6 -26 -23 -28 -24 -4 -38 18
-28 44 3 9 15 14 28 12 17 -2 23 -10 23 -28z m-1991 4 c7 -19 -10 -44 -29 -44
-19 0 -38 28 -31 45 7 20 52 19 60 -1z m2036 -79 c15 -18 -2 -45 -30 -45 -23
0 -34 28 -19 46 15 18 33 18 49 -1z m-2085 -25 c0 -18 -6 -26 -23 -28 -13 -2
-25 3 -28 12 -10 26 4 48 28 44 17 -2 23 -10 23 -28z m-25 -94 c0 -20 -25 -37
-44 -30 -19 7 -22 50 -3 57 17 6 47 -11 47 -27z m2146 19 c7 -18 -13 -45 -33
-45 -17 0 -27 24 -19 45 7 20 45 19 52 0z m34 -110 c0 -8 -9 -19 -21 -25 -37
-21 -69 28 -32 49 21 11 53 -3 53 -24z m-2216 10 c27 -28 -10 -69 -40 -44 -17
14 -18 31 -2 47 16 16 23 15 42 -3z m-4 -119 c0 -20 -25 -37 -44 -30 -19 7
-22 50 -3 57 17 6 47 -11 47 -27z m2230 10 c0 -26 -20 -39 -45 -30 -15 6 -20
35 -8 47 3 4 17 7 30 7 18 0 23 -6 23 -24z m8 -103 c3 -22 -28 -40 -48 -28
-12 7 -13 38 -3 49 15 14 48 1 51 -21z m-2248 -8 c0 -31 -26 -43 -47 -22 -21
21 -9 47 22 47 20 0 25 -5 25 -25z m2244 -80 c8 -22 -4 -45 -24 -45 -10 0 -23
7 -30 15 -15 18 2 45 30 45 10 0 20 -7 24 -15z m-2240 -11 c7 -19 -10 -44 -29
-44 -7 0 -18 7 -25 15 -10 12 -10 18 0 30 16 20 46 19 54 -1z m2225 -88 c17
-20 2 -46 -25 -46 -29 0 -41 24 -24 45 16 19 34 19 49 1z m-2214 -26 c0 -28
-27 -39 -50 -20 -21 18 -1 52 28 48 16 -2 22 -10 22 -28z m2194 -74 c17 -20 2
-46 -25 -46 -29 0 -41 24 -24 45 16 19 34 19 49 1z m-2174 -26 c0 -18 -6 -26
-23 -28 -13 -2 -25 3 -28 12 -10 26 4 48 28 44 17 -2 23 -10 23 -28z m2145
-75 c10 -12 10 -18 0 -30 -7 -8 -18 -15 -25 -15 -19 0 -36 25 -29 44 8 20 38
21 54 1z m-2115 -25 c0 -18 -6 -26 -23 -28 -13 -2 -25 3 -28 12 -10 26 4 48
28 44 17 -2 23 -10 23 -28z m2079 -73 c9 -14 7 -21 -7 -32 -33 -24 -71 11 -46
42 15 18 39 13 53 -10z m-2039 -17 c0 -20 -6 -26 -27 -28 -24 -3 -28 0 -28 21
0 30 9 39 35 35 14 -2 20 -10 20 -28z m1989 -73 c16 -25 -16 -56 -38 -37 -19
15 -21 46 -3 53 18 8 29 3 41 -16z m-1944 -2 c17 -21 5 -45 -24 -45 -27 0 -42
26 -25 46 15 18 33 18 49 -1z m1889 -79 c15 -18 4 -46 -19 -46 -23 0 -42 24
-34 44 8 20 37 21 53 2z m-1834 -26 c0 -18 -6 -26 -23 -28 -24 -4 -38 18 -28
44 3 9 15 14 28 12 17 -2 23 -10 23 -28z m1770 -70 c0 -18 -6 -26 -23 -28 -13
-2 -25 3 -28 12 -10 26 4 48 28 44 17 -2 23 -10 23 -28z m-1701 4 c7 -19 -10
-44 -29 -44 -19 0 -36 25 -29 44 3 9 16 16 29 16 13 0 26 -7 29 -16z m1630
-60 c19 -19 4 -57 -21 -52 -26 5 -39 34 -24 52 17 20 26 20 45 0z m-1566 -6
c16 -16 15 -23 -4 -42 -12 -12 -20 -13 -35 -6 -10 6 -19 16 -19 23 0 16 20 37
35 37 6 0 16 -5 23 -12z m1493 -64 c9 -11 10 -20 3 -32 -15 -23 -29 -25 -48
-7 -12 12 -13 21 -6 36 13 23 33 25 51 3z m-1416 -24 c0 -18 -6 -26 -23 -28
-13 -2 -25 3 -28 12 -10 26 4 48 28 44 17 -2 23 -10 23 -28z m1329 -36 c20
-19 20 -28 1 -44 -30 -25 -70 15 -45 45 16 19 25 19 44 -1z m-1244 -9 c16 -19
-3 -45 -32 -45 -24 0 -34 26 -18 45 16 19 34 19 50 0z m88 -61 c4 -29 -23 -51
-43 -34 -18 15 -19 32 -3 48 18 18 42 10 46 -14z m1077 -4 c0 -18 -6 -26 -23
-28 -13 -2 -25 3 -28 12 -10 26 4 48 28 44 17 -2 23 -10 23 -28z m-94 -26 c9
-11 10 -20 3 -32 -15 -23 -29 -25 -48 -7 -12 12 -13 21 -6 36 13 23 33 25 51
3z m-893 -21 c-4 -35 -43 -45 -53 -14 -9 28 1 41 31 41 22 0 25 -4 22 -27z
m96 -25 c14 -22 -12 -52 -37 -42 -17 6 -23 44 -10 58 11 11 35 3 47 -16z m701
-8 c0 -18 -6 -26 -23 -28 -13 -2 -25 3 -28 12 -10 26 4 48 28 44 17 -2 23 -10
23 -28z m-601 -15 c8 -23 -4 -45 -25 -45 -22 0 -34 22 -25 45 3 8 14 15 25 15
10 0 21 -7 25 -15z m501 -15 c0 -33 -40 -41 -50 -11 -9 28 2 43 28 39 16 -2
22 -10 22 -28z m-97 -19 c-4 -31 -35 -36 -52 -8 -9 14 -7 21 7 32 27 19 49 8
45 -24z m-303 19 c11 -18 -6 -50 -26 -50 -22 0 -34 22 -25 45 6 17 42 20 51 5z
m103 -33 c-2 -16 -10 -22 -28 -22 -28 0 -39 27 -20 50 18 21 52 1 48 -28z m92
28 c19 -23 8 -50 -20 -50 -28 0 -39 27 -20 50 16 19 24 19 40 0z"/>
<path d="M1090 2290 c-302 -64 -556 -263 -696 -545 -84 -169 -98 -234 -98
-450 0 -216 14 -281 98 -450 104 -209 254 -359 461 -461 127 -62 234 -93 358
-101 l87 -6 1 124 c0 118 1 122 14 86 31 -83 86 -127 159 -127 l36 0 -17 43
c-37 94 -83 140 -175 170 -16 6 -18 22 -18 142 l0 135 38 0 c138 1 301 95 385
223 135 206 109 457 -67 633 -94 94 -162 125 -318 149 l-38 6 0 224 0 225 -62
-1 c-35 0 -101 -9 -148 -19z m-59 -268 c-28 -53 -200 -170 -209 -143 -5 15 34
84 60 107 37 34 80 53 121 54 33 0 37 -2 28 -18z m-292 -117 c7 -25 6 -50 -3
-83 l-12 -47 47 23 c43 22 52 23 85 12 l38 -13 -30 -23 c-104 -84 -204 -65
-204 37 0 42 40 129 60 129 5 0 13 -16 19 -35z m686 -89 c359 -96 479 -545
215 -805 -189 -186 -481 -186 -670 0 -263 259 -146 705 210 805 60 16 183 17
245 0z m-824 -68 c16 -26 19 -46 17 -94 l-4 -60 37 38 c33 34 41 38 87 38 29
0 52 -2 52 -5 0 -12 -76 -88 -101 -101 -69 -35 -141 -4 -154 69 -8 39 19 147
35 147 6 0 19 -15 31 -32z m-104 -210 c30 -33 51 -80 59 -127 l7 -41 23 49
c23 50 49 71 108 85 27 7 28 6 22 -21 -13 -53 -61 -117 -106 -142 l-43 -24
-36 19 c-58 31 -81 75 -81 155 0 76 11 86 47 47z m203 -268 c0 -59 -21 -114
-57 -152 -53 -55 -148 -29 -197 54 -30 51 -45 128 -26 128 34 0 100 -53 134
-107 l36 -57 0 42 c0 51 19 92 56 121 43 34 54 28 54 -29z m64 -198 c9 -32 16
-69 16 -83 0 -44 -21 -101 -47 -126 -22 -23 -31 -25 -84 -21 -47 3 -66 10 -96
35 -40 31 -103 108 -103 124 0 16 74 9 119 -12 25 -11 64 -36 88 -55 l42 -35
-14 35 c-18 42 -19 99 -4 129 14 26 50 67 59 67 4 0 15 -26 24 -58z m152 -206
c21 -38 27 -64 28 -113 1 -55 -2 -66 -26 -90 -23 -23 -38 -28 -93 -31 -56 -4
-73 -1 -119 23 -30 15 -69 42 -87 61 l-32 33 44 11 c50 14 130 2 205 -31 61
-26 63 -24 27 14 -17 17 -36 42 -42 54 -17 34 -13 95 10 132 l21 35 19 -25
c10 -13 30 -46 45 -73z m170 -71 c58 -50 114 -147 114 -198 0 -22 -11 -40 -40
-68 -44 -42 -98 -56 -177 -45 -47 6 -163 53 -163 66 0 4 24 18 53 30 44 20 68
23 157 22 l105 -1 -42 24 c-52 32 -83 80 -83 131 0 42 9 84 18 84 2 0 29 -20
58 -45z m209 -262 c-16 -89 -85 -163 -151 -163 -37 0 -40 6 -22 47 36 82 111
153 162 153 16 0 17 -5 11 -37z"/>
<path d="M1155 1777 c-159 -59 -267 -190 -297 -357 -28 -163 51 -344 192 -439
161 -107 349 -107 510 0 308 206 240 677 -115 799 -82 28 -209 27 -290 -3z
m200 -147 l47 -140 149 0 c87 0 148 -4 145 -9 -3 -5 -58 -46 -121 -92 -65 -47
-114 -88 -111 -95 17 -45 86 -268 83 -270 -2 -2 -56 34 -120 81 -64 47 -119
85 -122 85 -3 0 -58 -38 -122 -85 -64 -47 -118 -83 -120 -81 -3 2 66 225 83
270 3 7 -46 48 -111 95 -63 46 -118 87 -121 92 -3 5 58 9 145 9 l149 0 47 140
c26 77 48 140 50 140 2 0 24 -63 50 -140z"/>
<path d="M1560 2039 c0 -22 116 -124 168 -148 28 -14 55 -22 58 -18 11 11 -18
70 -54 109 -44 48 -172 91 -172 57z"/>
<path d="M1870 1925 c-13 -33 -13 -86 0 -119 l9 -25 -32 19 c-38 24 -86 26
-113 5 -19 -14 -18 -14 5 -32 50 -38 87 -53 128 -53 53 0 83 33 83 92 0 41
-27 105 -54 127 -13 11 -17 9 -26 -14z"/>
<path d="M2011 1764 c-23 -29 -37 -101 -26 -135 7 -22 5 -21 -28 8 -40 35 -89
49 -125 36 -23 -9 -23 -9 17 -55 92 -104 206 -95 227 17 6 34 -19 139 -35 150
-5 3 -19 -6 -30 -21z"/>
<path d="M2117 1550 c-29 -23 -67 -96 -67 -128 0 -12 -4 -22 -10 -22 -5 0 -10
7 -10 16 0 27 -63 82 -104 89 -20 4 -40 5 -43 1 -3 -3 8 -35 26 -71 25 -51 41
-70 77 -91 31 -19 52 -24 70 -20 73 19 104 70 104 175 0 39 -4 71 -9 71 -4 0
-20 -9 -34 -20z"/>
<path d="M1902 1259 c9 -114 73 -190 151 -175 70 13 128 86 146 182 l9 46 -27
-7 c-38 -9 -91 -54 -127 -108 l-32 -46 -4 50 c-4 34 -13 58 -29 75 -22 24 -69
54 -85 54 -4 0 -4 -32 -2 -71z"/>
<path d="M1849 1103 c-20 -52 -26 -113 -18 -160 28 -148 193 -144 298 7 44 64
42 74 -16 65 -48 -7 -136 -46 -148 -65 -3 -5 -15 -14 -25 -20 -18 -9 -18 -8
-8 21 17 49 5 116 -28 150 -34 36 -42 36 -55 2z"/>
<path d="M1715 913 c-45 -71 -55 -100 -55 -163 0 -43 5 -64 21 -83 25 -32 88
-51 143 -43 74 11 210 106 187 129 -23 23 -124 20 -198 -6 l-71 -24 29 45 c35
55 38 112 9 160 -11 17 -23 32 -27 32 -5 0 -21 -21 -38 -47z"/>
<path d="M1531 808 c-67 -52 -113 -128 -119 -193 -4 -53 -3 -57 32 -90 42 -40
82 -50 171 -43 65 6 175 48 175 68 0 6 -21 21 -47 33 -40 18 -66 22 -154 22
l-107 0 36 20 c53 30 82 78 82 136 0 49 -7 79 -19 79 -4 0 -26 -15 -50 -32z"/>
</g>
</svg>
